<svg xmlns="http://www.w3.org/2000/svg" xmlns:xlink="http://www.w3.org/1999/xlink" width="1080" zoomAndPan="magnify" viewBox="0 0 810 809.999993" height="1080" preserveAspectRatio="xMidYMid meet" version="1.2"><g id="b170bb6941"><rect x="0" width="810" y="0" height="809.999993" style="fill:#ffffff;fill-opacity:1;stroke:none;"/><rect x="0" width="810" y="0" height="809.999993" style="fill:#000000;fill-opacity:1;stroke:none;"/><path style=" stroke:none;fill-rule:nonzero;fill:#ffffff;fill-opacity:1;" d="M -73.636719 234.472656 C -84.601562 237.285156 -85.960938 242.632812 -84.0625 248.875 C -82.707031 253.324219 -80.804688 257.671875 -79.816406 262.214844 C -54.558594 378.328125 -58.347656 415.402344 -66.523438 437.96875 C -72.960938 455.75 -111.078125 506.113281 -115.570312 551.230469 C -120.042969 596.144531 -75.695312 610.015625 -32.449219 606.648438 C 10.796875 603.277344 35.507812 543.371094 53.480469 497.878906 C 74.039062 445.832031 96.351562 444.710938 105.710938 408.203125 C 119.925781 352.765625 79.6875 337.8125 64.335938 292.695312 C 60.410156 281.15625 54.078125 243.15625 48.488281 215.570312 C 46.753906 207.015625 44.867188 199.785156 29.847656 203.3125 C -6.199219 211.78125 -39.089844 220.40625 -73.636719 234.472656 Z M -73.636719 234.472656 "/><path style=" stroke:none;fill-rule:nonzero;fill:#ffffff;fill-opacity:1;" d="M 89.484375 336.675781 C 53.859375 370.976562 67.976562 418.363281 84.609375 446.21875 C 93.574219 435.304688 101.167969 425.921875 105.710938 408.203125 C 114.269531 374.824219 103.089844 356.121094 89.484375 336.675781 Z M 89.484375 336.675781 "/><path style=" stroke:none;fill-rule:nonzero;fill:#ffffff;fill-opacity:1;" d="M 9.640625 582.003906 C 1.40625 572.917969 -12.675781 564.222656 -44.058594 554.085938 C -67.109375 546.640625 -94.652344 547.222656 -115.417969 549.792969 C -115.472656 550.273438 -115.523438 550.753906 -115.570312 551.230469 C -120.042969 596.144531 -75.695312 610.015625 -32.449219 606.648438 C -15.9375 605.359375 -2.125 595.828125 9.640625 582.003906 Z M 9.640625 582.003906 "/><path style=" stroke:none;fill-rule:evenodd;fill:#000000;fill-opacity:1;" d="M -60.746094 552.984375 C -80.800781 549.816406 -98.867188 550.242188 -109.292969 551.585938 C -110.523438 551.746094 -111.648438 550.878906 -111.808594 549.648438 C -111.96875 548.417969 -111.097656 547.289062 -109.867188 547.132812 C -99.015625 545.730469 -80.519531 545.3125 -60.046875 548.542969 C -39.574219 551.773438 -16.964844 558.679688 1.980469 572.046875 C 2.996094 572.761719 3.238281 574.164062 2.523438 575.179688 C 1.804688 576.191406 0.402344 576.433594 -0.609375 575.71875 C -18.804688 562.878906 -40.6875 556.148438 -60.746094 552.984375 Z M -60.746094 552.984375 "/><path style=" stroke:none;fill-rule:evenodd;fill:#000000;fill-opacity:1;" d="M 79.953125 346.667969 C 81.058594 347.226562 81.503906 348.578125 80.945312 349.683594 C 58.769531 393.589844 73.632812 428.539062 83.46875 440.269531 C 84.265625 441.222656 84.140625 442.640625 83.191406 443.4375 C 82.238281 444.234375 80.824219 444.109375 80.027344 443.15625 C 69.144531 430.175781 53.878906 393.3125 76.933594 347.660156 C 77.492188 346.550781 78.84375 346.105469 79.953125 346.667969 Z M 79.953125 346.667969 "/><path style=" stroke:none;fill-rule:nonzero;fill:#ffffff;fill-opacity:1;" d="M -79.539062 263.484375 C -50.945312 256.539062 4.398438 241.097656 12.292969 237.28125 C 16.132812 235.425781 23.449219 232.9375 31.59375 230.164062 C 37.664062 228.097656 44.191406 225.878906 50.089844 223.644531 C 49.550781 220.878906 49.015625 218.179688 48.488281 215.570312 C 46.753906 207.015625 44.867188 199.785156 29.847656 203.3125 C -6.199219 211.78125 -39.089844 220.40625 -73.636719 234.472656 C -84.601562 237.285156 -85.960938 242.632812 -84.0625 248.875 C -83.554688 250.53125 -82.976562 252.175781 -82.394531 253.820312 C -81.414062 256.59375 -80.433594 259.363281 -79.816406 262.214844 C -79.722656 262.640625 -79.632812 263.0625 -79.539062 263.484375 Z M -79.539062 263.484375 "/><path style=" stroke:none;fill-rule:evenodd;fill:#000000;fill-opacity:1;" d="M 35.199219 228.527344 C 35.796875 229.492188 35.496094 230.761719 34.527344 231.359375 C 31.566406 233.183594 25.632812 235.511719 18.214844 238.046875 C 10.710938 240.613281 1.46875 243.464844 -8.289062 246.324219 C -27.800781 252.042969 -49.429688 257.808594 -63.390625 261.367188 C -64.496094 261.648438 -65.617188 260.984375 -65.898438 259.882812 C -66.179688 258.78125 -65.511719 257.65625 -64.410156 257.378906 C -50.480469 253.824219 -28.898438 248.074219 -9.445312 242.371094 C 0.285156 239.523438 9.460938 236.6875 16.882812 234.152344 C 24.378906 231.585938 29.863281 229.398438 32.367188 227.851562 C 33.335938 227.257812 34.605469 227.558594 35.199219 228.527344 Z M 35.199219 228.527344 "/><path style=" stroke:none;fill-rule:nonzero;fill:#ffffff;fill-opacity:1;" d="M 331.363281 -170.527344 C 320.398438 -167.714844 319.039062 -162.367188 320.9375 -156.125 C 322.292969 -151.675781 324.195312 -147.328125 325.183594 -142.785156 C 350.441406 -26.671875 346.652344 10.402344 338.476562 32.96875 C 332.039062 50.75 293.921875 101.113281 289.429688 146.230469 C 284.957031 191.144531 329.304688 205.015625 372.550781 201.648438 C 415.796875 198.277344 440.507812 138.371094 458.480469 92.878906 C 479.039062 40.832031 501.351562 39.710938 510.710938 3.203125 C 524.925781 -52.234375 484.6875 -67.1875 469.335938 -112.304688 C 465.410156 -123.84375 459.078125 -161.84375 453.488281 -189.429688 C 451.753906 -197.984375 449.867188 -205.214844 434.847656 -201.6875 C 398.800781 -193.21875 365.910156 -184.59375 331.363281 -170.527344 Z M 331.363281 -170.527344 "/><path style=" stroke:none;fill-rule:nonzero;fill:#ffffff;fill-opacity:1;" d="M 494.484375 -68.324219 C 458.859375 -34.023438 472.976562 13.363281 489.609375 41.21875 C 498.574219 30.304688 506.167969 20.921875 510.710938 3.203125 C 519.269531 -30.175781 508.089844 -48.878906 494.484375 -68.324219 Z M 494.484375 -68.324219 "/><path style=" stroke:none;fill-rule:nonzero;fill:#ffffff;fill-opacity:1;" d="M 414.640625 177.003906 C 406.40625 167.917969 392.324219 159.222656 360.941406 149.085938 C 337.890625 141.640625 310.347656 142.222656 289.582031 144.792969 C 289.527344 145.273438 289.476562 145.753906 289.429688 146.230469 C 284.957031 191.144531 329.304688 205.015625 372.550781 201.648438 C 389.0625 200.359375 402.875 190.828125 414.640625 177.003906 Z M 414.640625 177.003906 "/><path style=" stroke:none;fill-rule:evenodd;fill:#000000;fill-opacity:1;" d="M 344.253906 147.984375 C 324.199219 144.816406 306.132812 145.242188 295.707031 146.585938 C 294.476562 146.746094 293.351562 145.878906 293.191406 144.648438 C 293.03125 143.417969 293.902344 142.289062 295.132812 142.132812 C 305.984375 140.730469 324.480469 140.3125 344.953125 143.542969 C 365.425781 146.773438 388.035156 153.679688 406.980469 167.046875 C 407.996094 167.761719 408.238281 169.164062 407.523438 170.179688 C 406.804688 171.191406 405.402344 171.433594 404.390625 170.71875 C 386.195312 157.878906 364.3125 151.148438 344.253906 147.984375 Z M 344.253906 147.984375 "/><path style=" stroke:none;fill-rule:evenodd;fill:#000000;fill-opacity:1;" d="M 484.953125 -58.332031 C 486.058594 -57.773438 486.503906 -56.421875 485.945312 -55.316406 C 463.769531 -11.410156 478.632812 23.539062 488.46875 35.269531 C 489.265625 36.222656 489.140625 37.640625 488.191406 38.4375 C 487.238281 39.234375 485.824219 39.109375 485.027344 38.15625 C 474.144531 25.175781 458.878906 -11.6875 481.933594 -57.339844 C 482.492188 -58.449219 483.84375 -58.894531 484.953125 -58.332031 Z M 484.953125 -58.332031 "/><path style=" stroke:none;fill-rule:nonzero;fill:#ffffff;fill-opacity:1;" d="M 736.363281 234.472656 C 725.398438 237.285156 724.039062 242.632812 725.9375 248.875 C 727.292969 253.324219 729.195312 257.671875 730.183594 262.214844 C 755.441406 378.328125 751.652344 415.402344 743.476562 437.96875 C 737.039062 455.75 698.921875 506.113281 694.429688 551.230469 C 689.957031 596.144531 734.304688 610.015625 777.550781 606.648438 C 820.796875 603.277344 845.507812 543.371094 863.480469 497.878906 C 884.039062 445.832031 906.351562 444.710938 915.710938 408.203125 C 929.925781 352.765625 889.6875 337.8125 874.335938 292.695312 C 870.410156 281.15625 864.078125 243.15625 858.488281 215.570312 C 856.753906 207.015625 854.867188 199.785156 839.847656 203.3125 C 803.800781 211.78125 770.910156 220.40625 736.363281 234.472656 Z M 736.363281 234.472656 "/><path style=" stroke:none;fill-rule:nonzero;fill:#ffffff;fill-opacity:1;" d="M 819.640625 582.003906 C 811.40625 572.917969 797.324219 564.222656 765.941406 554.085938 C 742.890625 546.640625 715.347656 547.222656 694.582031 549.792969 C 694.527344 550.273438 694.476562 550.753906 694.429688 551.230469 C 689.957031 596.144531 734.304688 610.015625 777.550781 606.648438 C 794.0625 605.359375 807.875 595.828125 819.640625 582.003906 Z M 819.640625 582.003906 "/><path style=" stroke:none;fill-rule:evenodd;fill:#000000;fill-opacity:1;" d="M 749.253906 552.984375 C 729.199219 549.816406 711.132812 550.242188 700.707031 551.585938 C 699.476562 551.746094 698.351562 550.878906 698.191406 549.648438 C 698.03125 548.417969 698.902344 547.289062 700.132812 547.132812 C 710.984375 545.730469 729.480469 545.3125 749.953125 548.542969 C 770.425781 551.773438 793.035156 558.679688 811.980469 572.046875 C 812.996094 572.761719 813.238281 574.164062 812.523438 575.179688 C 811.804688 576.191406 810.402344 576.433594 809.390625 575.71875 C 791.195312 562.878906 769.3125 556.148438 749.253906 552.984375 Z M 749.253906 552.984375 "/><path style=" stroke:none;fill-rule:nonzero;fill:#ffffff;fill-opacity:1;" d="M 730.460938 263.484375 C 759.054688 256.539062 814.398438 241.097656 822.292969 237.28125 C 826.132812 235.425781 833.449219 232.9375 841.59375 230.164062 C 847.664062 228.097656 854.191406 225.878906 860.089844 223.644531 C 859.550781 220.878906 859.015625 218.179688 858.488281 215.570312 C 856.753906 207.015625 854.867188 199.785156 839.847656 203.3125 C 803.800781 211.78125 770.910156 220.40625 736.363281 234.472656 C 725.398438 237.285156 724.039062 242.632812 725.9375 248.875 C 726.445312 250.53125 727.023438 252.175781 727.605469 253.820312 C 728.585938 256.59375 729.566406 259.363281 730.183594 262.214844 C 730.277344 262.640625 730.367188 263.0625 730.460938 263.484375 Z M 730.460938 263.484375 "/><path style=" stroke:none;fill-rule:evenodd;fill:#000000;fill-opacity:1;" d="M 845.199219 228.527344 C 845.796875 229.492188 845.496094 230.761719 844.527344 231.359375 C 841.566406 233.183594 835.632812 235.511719 828.214844 238.046875 C 820.710938 240.613281 811.46875 243.464844 801.710938 246.324219 C 782.199219 252.042969 760.570312 257.808594 746.609375 261.367188 C 745.503906 261.648438 744.382812 260.984375 744.101562 259.882812 C 743.820312 258.78125 744.488281 257.65625 745.589844 257.378906 C 759.519531 253.824219 781.101562 248.074219 800.554688 242.371094 C 810.285156 239.523438 819.460938 236.6875 826.882812 234.152344 C 834.378906 231.585938 839.863281 229.398438 842.367188 227.851562 C 843.335938 227.257812 844.605469 227.558594 845.199219 228.527344 Z M 845.199219 228.527344 "/><path style=" stroke:none;fill-rule:nonzero;fill:#ffffff;fill-opacity:1;" d="M 331.363281 639.472656 C 320.398438 642.285156 319.039062 647.632812 320.9375 653.875 C 322.292969 658.324219 324.195312 662.671875 325.183594 667.214844 C 350.441406 783.328125 346.652344 820.402344 338.476562 842.96875 C 332.039062 860.75 293.921875 911.113281 289.429688 956.230469 C 284.957031 1001.144531 329.304688 1015.015625 372.550781 1011.648438 C 415.796875 1008.277344 440.507812 948.371094 458.480469 902.878906 C 479.039062 850.832031 501.351562 849.710938 510.710938 813.203125 C 524.925781 757.765625 484.6875 742.8125 469.335938 697.695312 C 465.410156 686.15625 459.078125 648.15625 453.488281 620.570312 C 451.753906 612.015625 449.867188 604.785156 434.847656 608.3125 C 398.800781 616.78125 365.910156 625.40625 331.363281 639.472656 Z M 331.363281 639.472656 "/><path style=" stroke:none;fill-rule:nonzero;fill:#ffffff;fill-opacity:1;" d="M 494.484375 741.675781 C 458.859375 775.976562 472.976562 823.363281 489.609375 851.21875 C 498.574219 840.304688 506.167969 830.921875 510.710938 813.203125 C 519.269531 779.824219 508.089844 761.121094 494.484375 741.675781 Z M 494.484375 741.675781 "/><path style=" stroke:none;fill-rule:evenodd;fill:#000000;fill-opacity:1;" d="M 484.953125 751.667969 C 486.058594 752.226562 486.503906 753.578125 485.945312 754.683594 C 463.769531 798.589844 478.632812 833.539062 488.46875 845.269531 C 489.265625 846.222656 489.140625 847.640625 488.191406 848.4375 C 487.238281 849.234375 485.824219 849.109375 485.027344 848.15625 C 474.144531 835.175781 458.878906 798.3125 481.933594 752.660156 C 482.492188 751.550781 483.84375 751.105469 484.953125 751.667969 Z M 484.953125 751.667969 "/><path style=" stroke:none;fill-rule:nonzero;fill:#ffffff;fill-opacity:1;" d="M 325.460938 668.484375 C 354.054688 661.539062 409.398438 646.097656 417.292969 642.28125 C 421.132812 640.425781 428.449219 637.9375 436.59375 635.164062 C 442.664062 633.097656 449.191406 630.878906 455.089844 628.644531 C 454.550781 625.878906 454.015625 623.179688 453.488281 620.570312 C 451.753906 612.015625 449.867188 604.785156 434.847656 608.3125 C 398.800781 616.78125 365.910156 625.40625 331.363281 639.472656 C 320.398438 642.285156 319.039062 647.632812 320.9375 653.875 C 321.445312 655.53125 322.023438 657.175781 322.605469 658.820312 C 323.585938 661.589844 324.566406 664.363281 325.183594 667.214844 C 325.277344 667.640625 325.367188 668.0625 325.460938 668.484375 Z M 325.460938 668.484375 "/><path style=" stroke:none;fill-rule:evenodd;fill:#000000;fill-opacity:1;" d="M 440.199219 633.527344 C 440.796875 634.492188 440.496094 635.761719 439.527344 636.359375 C 436.566406 638.183594 430.632812 640.511719 423.214844 643.046875 C 415.710938 645.613281 406.46875 648.464844 396.710938 651.324219 C 377.199219 657.042969 355.570312 662.808594 341.609375 666.367188 C 340.503906 666.648438 339.382812 665.984375 339.101562 664.882812 C 338.820312 663.78125 339.488281 662.65625 340.589844 662.375 C 354.519531 658.824219 376.101562 653.074219 395.554688 647.371094 C 405.285156 644.523438 414.460938 641.6875 421.882812 639.152344 C 429.378906 636.585938 434.863281 634.398438 437.367188 632.851562 C 438.335938 632.257812 439.605469 632.558594 440.199219 633.527344 Z M 440.199219 633.527344 "/></g></svg>